<svg width="205" height="56" viewBox="0 0 205 56" fill="none" xmlns="http://www.w3.org/2000/svg">
<path d="M30.0771 7.22426C50.4546 7.48555 43.5973 26.2756 28.9271 29.7301C49.2682 33.5279 40.7596 58.2683 14.5319 54.908C12.6837 54.8391 10.5883 54.8052 8.24579 54.8062C7.20975 54.8062 6.17371 54.8173 5.13767 54.8396C4.10163 54.8619 3.14408 54.8847 2.26501 54.908C1.38544 54.9308 0.631955 54.9657 0 55.0098L0.270404 53.6562C1.8037 53.5681 2.99773 53.3884 3.85249 53.1169C4.70709 52.8478 5.43036 52.2692 5.88052 51.4945C6.37576 50.6843 6.82643 49.469 7.23254 47.8486L16.1543 14.3262C17.1828 10.2017 17.1129 8.4426 12.1666 8.51248L12.5039 7.16198C18.2796 7.51137 24.2239 7.27591 30.0771 7.22426ZM17.2314 30.7448L17.5018 29.5964C21.3194 29.6085 26.8004 29.9716 29.8705 27.737C39.4577 22.142 38.2105 3.81383 24.5976 9.42091C23.7874 10.0286 23.1342 11.3244 22.638 13.3083C22.322 14.9429 12.5267 50.422 12.9384 51.1223C13.0234 53.3813 14.5988 53.3509 16.9595 53.4542C26.4555 53.7869 33.5528 49.4513 33.249 39.7335C33.2126 29.7042 24.7267 30.678 17.2314 30.7448Z" fill="#E6E6E6"/>
<path d="M50.6187 39.6666C54.7628 38.1749 59.2458 36.8289 62.3782 34.4621C66.2322 31.5591 68.5534 25.7864 67.3791 21.147C66.498 19.8102 64.2665 21.147 62.919 22.0934C56.721 25.9687 45.3336 51.095 56.7681 53.1169C61.1052 52.9498 64.3925 50.5056 67.1771 46.3584L68.2587 46.8992C64.6705 54.1575 52.0497 60.5561 46.8391 51.6631C42.6858 41.8147 51.8005 25.9262 60.8241 21.147C64.5657 19.04 72.8677 17.5011 73.0576 23.7842C72.6247 33.5157 58.2386 38.2159 50.5503 40.8151L50.6187 39.6666ZM117.054 39.6666C121.199 38.1749 125.683 36.8289 128.814 34.4621C132.668 31.5591 134.989 25.7864 133.816 21.147C132.935 19.8102 130.704 21.147 129.356 22.0934C123.158 25.9687 111.769 51.095 123.199 53.1169C127.536 52.9498 130.825 50.5056 133.61 46.3584L134.691 46.8992C131.103 54.1575 118.481 60.5561 113.272 51.6631C109.125 41.8147 118.233 25.9262 127.263 21.147C131.005 19.04 139.307 17.5011 139.496 23.7842C139.065 33.5157 124.679 38.2159 116.991 40.8151L117.054 39.6666ZM174.307 19.8694L146.65 53.913C156.948 53.9859 162.554 54.4492 166.198 42.9343L167.772 42.916C166.731 47.4309 165.859 51.215 165.235 54.9657C156.53 54.6619 147.391 54.8594 138.676 55.3409L166.333 21.2974C155.825 21.2655 150.413 20.553 146.785 32.2761L145.211 32.2943C146.275 27.7096 147.116 24.0333 147.748 20.2447C156.451 20.5439 165.59 20.351 174.307 19.8694ZM181.465 53.7929C188.582 52.3908 194.873 35.843 196.334 28.9204C195.783 38.5121 186.109 63.5867 174.74 53.6577C169.575 43.7105 178.565 27.1172 187.107 21.2154C193.658 17.053 198.829 19.8907 197.212 28.176L196.47 28.5816C197.659 17.3052 189.798 19.163 185.486 26.9941C182.573 30.5124 175.086 52.4014 181.465 53.7929ZM198.496 20.269C200.533 20.1672 202.836 19.9955 204.715 19.3225L196.269 49.1961C196.178 49.6012 196.054 50.1309 195.897 50.7851C195.026 53.9266 198.176 54.1272 199.918 51.9001C201.076 50.7942 202.566 46.4313 203.296 43.9916H204.582C202.984 48.8528 201.17 55.9121 195.119 55.9547C191.829 56.0504 190.317 53.5241 190.929 50.5815C191.267 48.4396 197.828 23.052 198.496 20.269ZM105.65 28.9599C107.601 22.4894 109.551 16.0164 111.502 9.54092C112.052 7.54024 112.704 5.19927 112.348 3.18795C110.796 -2.83081 101.421 0.652537 100.261 5.56993C96.9473 12.0703 87.6093 54.4082 81.9718 53.4542C81.115 53.4542 80.6193 53.0825 80.4846 52.3391C80.1717 50.8003 81.194 48.1175 81.671 46.3842C85.2759 34.0687 89.0935 21.8337 92.7606 9.54092C93.3105 7.54024 93.9607 5.19927 93.6053 3.18795C92.753 -1.57753 85.3169 -0.350084 83.0625 2.95249C81.4128 4.72682 80.1413 9.53788 79.2435 11.9746H80.5271C81.8381 8.63249 83.1233 2.78235 86.4745 2.5803C87.3313 2.5803 87.827 2.95198 87.9617 3.69534C88.1987 6.60598 86.2649 10.7076 85.5782 13.7215C83.1476 22.2286 80.5195 30.6567 77.9158 39.1091C77.1121 43.4158 72.491 51.6115 76.1308 55.1055C79.1371 57.0803 84.1274 55.5415 85.9884 52.289C89.5112 48.4912 100.845 -6.23516 106.703 3.68926C103.949 19.1843 97.2709 34.3573 93.6539 49.7673C91.7656 56.9284 100.564 57.7351 104.136 53.0774C105.789 51.3168 107.054 46.4814 107.955 44.0554H106.671C105.359 47.3974 104.075 53.2476 100.724 53.4496C99.8671 53.4496 99.3713 53.0779 99.2366 52.3346C98.9237 50.7957 99.9461 48.1129 100.423 46.3796C102.106 40.5629 103.868 34.7492 105.65 28.9599Z" fill="#E6E6E6"/>
</svg>
